<svg width="45" height="29" viewBox="0 0 45 29" fill="none" xmlns="http://www.w3.org/2000/svg">
<path fill-rule="evenodd" clip-rule="evenodd" d="M5.40209 14.3954V5.12972H11.2552C14.6514 5.12972 16.1651 7.4458 16.1651 9.76323C16.1651 12.0793 14.6926 14.3954 11.2552 14.3954H5.40209ZM21.5672 9.6385C21.5672 4.63217 18.0078 0.0818073 11.2552 0.0415742C6.71281 0.0415742 4.54242 0 0 0V29H5.40209V14.5L16.5751 29H23L14.6554 18.6977C17.314 17.6798 21.5672 15.1826 21.5672 9.6385V9.6385Z" fill="#FFFFFE"/>
<path fill-rule="evenodd" clip-rule="evenodd" d="M35 9L37.8454 12.8304L40 16L45 9H35Z" fill="#02AACE"/>
<path fill-rule="evenodd" clip-rule="evenodd" d="M25 9L32.0567 19L25 29H30.8867L35.0007 23.1702L39.1133 29H45L30.8867 9H25" fill="#FFFFFE"/>
</svg>
